Coordinates
version=1
nRows=8
nColumns=33
inDegrees=yes

Units are S.I. units (second, meters, Newtons, ...)
Angles are in degrees.

endheader
time	ground_thorax_rot_x	ground_thorax_rot_y	ground_thorax_rot_z	ground_thorax_tx	ground_thorax_ty	ground_thorax_tz	clav_prot_r	clav_elev_r	scapula_abduction_r	scapula_elevation_r	scapula_upward_rot_r	scapula_winging_r	shoulder_elv_r	plane_of_elev_r	axial_rot_r	elbow_flexion_r	pro_sup_r	wrist_flex_r	wrist_dev_r	clav_prot_l	clav_elev_l	scapula_abduction_l	scapula_elevation_l	scapula_upward_rot_l	scapula_winging_l	shoulder_elv_l	plane_of_elev_l	axial_rot_l	elbow_flexion_l	pro_sup_l	wrist_flex_l	wrist_dev_l
      4.67000000	     -3.60717692	      3.94501024	      8.44178574	     -0.08589443	      1.02636742	      0.01351242	     16.65543555	    -11.62797387	     40.09506117	    -11.32246390	     20.30620116	    -12.20513512	     -5.07032435	    -57.17355938	    121.91327756	    -45.76228098	   -163.74860218	      4.57670631	      5.10545392	     23.33842827	    -10.64852031	    -34.79492981	     -5.90738791	    -23.93201768	     11.00611029	     60.00910069	      0.83418827	     12.55846256	     18.58235292	     15.72424067	     14.72229666	     -7.74939630
      4.68000000	     -3.53762774	      3.94299043	      8.55848714	     -0.08659489	      1.02609028	      0.01365058	     16.54333421	    -11.45016290	     39.60355894	    -11.03397730	     19.81044008	    -12.13165766	     -5.51570336	    -57.35163609	    121.84372959	    -46.94108560	   -163.95369178	      4.85875864	      5.06869569	     23.12423571	    -10.46851790	    -34.44304293	     -6.19836571	    -24.20207916	     10.82249549	     59.94734369	      0.53085020	     13.02356522	     19.82292002	     15.67412177	     14.68053526	     -8.08399525
      4.69000000	     -3.44265511	      3.94873361	      8.67399125	     -0.08730757	      1.02590171	      0.01376059	     16.44326444	    -11.33642710	     39.10609450	    -10.78793082	     19.28056478	    -12.02152703	     -5.93614796	    -57.58339112	    121.66203426	    -48.13251765	   -164.21151579	      5.15274571	      5.00932520	     22.89987570	    -10.30478305	    -34.07166872	     -6.50459206	    -24.53233200	     10.62134827	     59.91054887	      0.18600711	     13.40747479	     21.21021609	     15.63214659	     14.66452653	     -8.45864912
      4.70000000	     -3.39703934	      3.93850877	      8.77926769	     -0.08801250	      1.02579145	      0.01383515	     16.35181168	    -11.25593421	     38.60198161	    -10.55886102	     18.71954371	    -11.88770021	     -6.43244884	    -57.83883717	    121.46750368	    -49.39282245	   -164.50692453	      5.47937398	      4.94141490	     22.67176153	    -10.13106192	    -33.69214071	     -6.83619776	    -24.89662753	     10.40997017	     59.93677415	     -0.24667210	     13.75272386	     22.69287840	     15.57436218	     14.68276547	     -8.85318806
      4.71000000	     -3.32669513	      3.93289025	      8.89460436	     -0.08868356	      1.02575824	      0.01386956	     16.25463831	    -11.20693541	     38.07709662	    -10.34936259	     18.14106418	    -11.72569150	     -6.93716338	    -58.15037109	    121.20392009	    -50.65078541	   -164.84466817	      5.83029002	      4.84676138	     22.43057436	     -9.95646747	    -33.29164093	     -7.19434556	    -25.31315833	     10.18359931	     59.95426802	     -0.71631628	     14.03719562	     24.29883450	     15.49075336	     14.75782879	     -9.26610589
      4.72000000	     -3.28952969	      3.91739427	      9.00167044	     -0.08933301	      1.02575732	      0.01389830	     16.15320434	    -11.17128547	     37.53741938	    -10.14353400	     17.54627756	    -11.55283250	     -7.50854893	    -58.47901102	    120.93170803	    -51.96797078	   -165.21481554	      6.22625341	      4.72761342	     22.18366226	     -9.76196304	    -32.88440462	     -7.58166168	    -25.75237187	      9.95082953	     60.01768390	     -1.26106860	     14.27406908	     25.98887216	     15.37278198	     14.89146212	     -9.68002074
      4.73000000	     -3.60240567	      3.96980311	      9.13709037	     -0.08988641	      1.02701627	      0.01374952	     16.03984615	    -12.31904092	     36.76064948	    -10.87277035	     16.68893672	    -10.61980617	     -8.68835187	    -59.29215986	    119.61264787	    -53.34584679	   -167.35598293	      7.10934381	      3.93903458	     21.73054641	     -9.94438087	    -32.09921834	     -7.68137313	    -26.24834674	      9.41976505	     60.96093274	     -2.54253718	     13.60756196	     27.93916668	     15.40107771	     16.31017900	    -10.18810032
      4.74000000	     -3.48803673	      3.93693281	      9.20805300	     -0.09034930	      1.02681681	      0.01372491	     15.79149706	    -12.00545307	     36.11545057	    -10.48148337	     16.27152531	    -10.53125469	     -9.35304382	    -59.68769762	    119.61415614	    -54.70118042	   -167.67572237	      7.53883339	      3.82998302	     21.45455732	     -9.56089693	    -31.66656709	     -8.22149105	    -26.65772786	      9.21374704	     60.76465713	     -2.93424701	     14.08481399	     29.68050134	     15.16150994	     16.42424549	    -10.50976327
